<?xml version="1.0" encoding="UTF-8"?>
<svg width="20px" height="20px" viewBox="0 0 20 20" version="1.1" xmlns="http://www.w3.org/2000/svg" xmlns:xlink="http://www.w3.org/1999/xlink">
    <!-- Generator: Sketch 58 (84663) - https://sketch.com -->
    <title>clouds_sun [#1275]</title>
    <desc>Created with Sketch.</desc>
    <g id="Icons" stroke="none" stroke-width="1" fill="none" fill-rule="evenodd">
        <g id="Education-&amp;-Time" transform="translate(-300.000000, -180.000000)" fill="#FFFFFF">
            <g id="icons" transform="translate(20.000000, 20.000000)">
                <path d="M297.85811,171.773 C296.560541,166.466 289.156179,167.286 288.34194,171.287 C288.207571,171.95 288.11632,172.603 288.057157,173.125 C288,173.628 287.562798,174 287.055402,174 C286.486839,174 286.029581,173.531 286.044623,172.964 L286.065681,172.199 C283.91276,171.391 281.639509,173.25 282.055653,175.554 C282.318376,177.008 283.696164,178 285.177237,178 L292.955628,178 L293.035849,178 L293.035849,177.995 C296.163449,177.945 298.654299,175.031 297.85811,171.773 M285.013788,170 C285.55628,170 286.069692,170.108 286.558035,170.267 C287.625971,167.759 290.103785,166 293.006769,166 C292.175483,165.376 291.148659,165 290.027576,165 C287.262973,165 285.013788,167.242 285.013788,170 M300,173 C300,176.828 297.046879,179.934 293.035849,179.994 C293.035849,179.994 293.016796,179.996 293.006769,179.997 C293.016796,179.997 293.025821,180 293.035849,180 L285.013788,180 C282.245174,180 280,177.761 280,175 C280,172.942 281.24743,171.179 283.028328,170.411 C282.78165,166.363 286.013537,163 290.027576,163 C292.750063,163 295.104537,164.548 296.269742,166.806 C298.49085,167.979 300,170.311 300,173 M284.354976,164.343 C284.747054,163.952 284.747054,163.319 284.354976,162.928 C283.963901,162.538 283.329155,162.538 282.937077,162.928 C282.546002,163.319 282.546002,163.952 282.937077,164.343 C283.329155,164.733 283.963901,164.733 284.354976,164.343 M297.118075,164.343 C297.510153,163.952 297.510153,163.319 297.118075,162.928 C296.726999,162.538 296.092254,162.538 295.700175,162.928 C295.3091,163.319 295.3091,163.952 295.700175,164.343 C296.092254,164.733 296.726999,164.733 297.118075,164.343 M281.002758,171 C281.557283,171 282.005515,170.552 282.005515,170 C282.005515,169.447 281.557283,169 281.002758,169 C280.449235,169 280,169.447 280,170 C280,170.552 280.449235,171 281.002758,171 M289.024818,161 C289.024818,160.447 289.474054,160 290.027576,160 C290.582101,160 291.030333,160.447 291.030333,161 C291.030333,161.552 290.582101,162 290.027576,162 C289.474054,162 289.024818,161.552 289.024818,161" id="clouds_sun-[#1275]"></path>
            </g>
        </g>
    </g>
</svg>