<?xml version="1.0" encoding="UTF-8"?>
<svg width="20px" height="14px" viewBox="0 0 20 14" version="1.1" xmlns="http://www.w3.org/2000/svg" xmlns:xlink="http://www.w3.org/1999/xlink">
    <!-- Generator: Sketch 58 (84663) - https://sketch.com -->
    <title>clouds [#1274]</title>
    <desc>Created with Sketch.</desc>
    <g id="Icons" stroke="none" stroke-width="1" fill="none" fill-rule="evenodd">
        <g id="Education-&amp;-Time" transform="translate(-340.000000, -183.000000)" fill="#FFFFFF">
            <g id="icons" transform="translate(20.000000, 20.000000)">
                <path d="M337.85811,168.773 C337.400852,166.902 335.841564,165.416 333.940336,165.08 C331.400351,164.631 328.753071,166.265 328.34194,168.287 C328.207571,168.95 328.11632,169.603 328.057157,170.125 C328,170.628 327.562798,171 327.055402,171 L327.055402,171 C326.486839,171 326.029581,170.531 326.045625,169.964 L326.065681,169.199 C325.737779,169.076 325.385811,169 325.013788,169 C323.172725,169 321.71271,170.657 322.055653,172.554 C322.319378,174.008 323.696164,175 325.177237,175 L332.955628,175 L333.035849,175 L333.035849,174.995 C336.163449,174.945 338.654299,172.031 337.85811,168.773 M340,170 C340,173.828 337.046879,176.934 333.035849,176.994 C333.035849,176.994 333.016796,176.996 333.006769,176.997 C333.016796,176.997 333.025821,177 333.035849,177 L325.013788,177 C322.245174,177 320,174.761 320,172 C320,169.238 322.245174,167 325.013788,167 C325.55628,167 326.069692,167.108 326.558035,167.267 C327.625971,164.759 330.103785,163 333.008774,163 C336.885435,163 340,166.133 340,170 M333.035849,174.983 L333.035849,174.995 C333.008774,174.995 332.982702,175 332.955628,175 C333.01078,175 333.035849,174.985 333.035849,174.983" id="clouds-[#1274]"></path>
            </g>
        </g>
    </g>
</svg>