<?xml version="1.0" encoding="UTF-8"?>
<svg width="20px" height="20px" viewBox="0 0 20 20" version="1.1" xmlns="http://www.w3.org/2000/svg" xmlns:xlink="http://www.w3.org/1999/xlink">
    <!-- Generator: Sketch 58 (84663) - https://sketch.com -->
    <title>search_right [#1505]</title>
    <desc>Created with Sketch.</desc>
    <g id="Icons" stroke="none" stroke-width="1" fill="none" fill-rule="evenodd">
        <g id="Utils" transform="translate(-220.000000, -140.000000)" fill="#FFFFFF">
            <g id="icons" transform="translate(20.000000, 20.000000)">
                <path d="M204.2453,134.3429 L205.6593,135.7569 L201.4173,139.9999 L200.0023,138.5859 L204.2453,134.3429 Z M212.0023,133.9999 C208.6943,133.9999 206.0023,131.3079 206.0023,127.9999 C206.0023,124.6909 208.6943,121.9999 212.0023,121.9999 C215.3113,121.9999 218.0023,124.6909 218.0023,127.9999 C218.0023,131.3079 215.3113,133.9999 212.0023,133.9999 L212.0023,133.9999 Z M212.0023,119.9999 C207.5843,119.9999 204.0023,123.5819 204.0023,127.9999 C204.0023,132.4179 207.5843,135.9999 212.0023,135.9999 C216.4213,135.9999 220.0023,132.4179 220.0023,127.9999 C220.0023,123.5819 216.4213,119.9999 212.0023,119.9999 L212.0023,119.9999 Z" id="search_right-[#1505]"></path>
            </g>
        </g>
    </g>
</svg>