<?xml version="1.0" encoding="UTF-8"?>
<svg width="20px" height="20px" viewBox="0 0 20 20" version="1.1" xmlns="http://www.w3.org/2000/svg" xmlns:xlink="http://www.w3.org/1999/xlink">
    <!-- Generator: Sketch 58 (84663) - https://sketch.com -->
    <title>sun_star [#1268]</title>
    <desc>Created with Sketch.</desc>
    <g id="Icons" stroke="none" stroke-width="1" fill="none" fill-rule="evenodd">
        <g id="Education-&amp;-Time" transform="translate(-180.000000, -220.000000)" fill="#FFFFFF">
            <g id="icons" transform="translate(20.000000, 20.000000)">
                <path d="M162.929,204.343 C162.538,203.952 162.538,203.319 162.929,202.929 C163.32,202.538 163.953,202.538 164.343,202.929 C164.734,203.319 164.734,203.952 164.343,204.343 C163.953,204.734 163.32,204.734 162.929,204.343 M177.071,215.657 C177.462,216.047 177.462,216.68 177.071,217.071 C176.681,217.461 176.047,217.461 175.657,217.071 C175.266,216.68 175.266,216.047 175.657,215.657 C176.047,215.266 176.681,215.266 177.071,215.657 M164.343,215.657 C164.734,216.047 164.734,216.68 164.343,217.071 C163.953,217.461 163.32,217.461 162.929,217.071 C162.538,216.68 162.538,216.047 162.929,215.657 C163.32,215.266 163.953,215.266 164.343,215.657 M177.071,202.929 C177.462,203.319 177.462,203.952 177.071,204.343 C176.681,204.734 176.047,204.734 175.657,204.343 C175.266,203.952 175.266,203.319 175.657,202.929 C176.047,202.538 176.681,202.538 177.071,202.929 M162,210 C162,210.552 161.552,211 161,211 C160.448,211 160,210.552 160,210 C160,209.448 160.448,209 161,209 C161.552,209 162,209.448 162,210 M180,210 C180,210.552 179.552,211 179,211 C178.448,211 178,210.552 178,210 C178,209.448 178.448,209 179,209 C179.552,209 180,209.448 180,210 M171,219 C171,219.552 170.552,220 170,220 C169.448,220 169,219.552 169,219 C169,218.448 169.448,218 170,218 C170.552,218 171,218.448 171,219 M169,201 C169,200.448 169.448,200 170,200 C170.552,200 171,200.448 171,201 C171,201.552 170.552,202 170,202 C169.448,202 169,201.552 169,201 M170,215 C167.243,215 165,212.757 165,210 C165,207.243 167.243,205 170,205 C172.757,205 175,207.243 175,210 C175,212.757 172.757,215 170,215 M170,203 C166.134,203 163,206.134 163,210 C163,213.866 166.134,217 170,217 C173.866,217 177,213.866 177,210 C177,206.134 173.866,203 170,203" id="sun_star-[#1268]"></path>
            </g>
        </g>
    </g>
</svg>