<?xml version="1.0" encoding="UTF-8"?>
<svg width="20px" height="20px" viewBox="0 0 20 20" version="1.1" xmlns="http://www.w3.org/2000/svg" xmlns:xlink="http://www.w3.org/1999/xlink">
    <!-- Generator: Sketch 58 (84663) - https://sketch.com -->
    <title>clouds [#1267]</title>
    <desc>Created with Sketch.</desc>
    <g id="Icons" stroke="none" stroke-width="1" fill="none" fill-rule="evenodd">
        <g id="Education-&amp;-Time" transform="translate(-220.000000, -220.000000)" fill="#FFFFFF">
            <g id="icons" transform="translate(20.000000, 20.000000)">
                <path d="M206.999359,216.996918 L206.999359,218.998973 C206.999359,219.55154 206.55153,220 205.99974,220 C205.447951,220 205.000122,219.55154 205.000122,218.998973 L205.000122,216.996918 C205.000122,216.444351 205.447951,215.99589 205.99974,215.99589 C206.55153,215.99589 206.999359,216.444351 206.999359,216.996918 M214.996304,216.996918 L214.996304,218.998973 C214.996304,219.55154 214.548475,220 213.996686,220 C213.444897,220 212.997068,219.55154 212.997068,218.998973 L212.997068,216.996918 C212.997068,216.444351 213.444897,215.99589 213.996686,215.99589 C214.548475,215.99589 214.996304,216.444351 214.996304,216.996918 M210.997832,216.996918 L210.997832,218.998973 C210.997832,219.55154 210.550003,220 209.998213,220 C209.446424,220 208.998595,219.55154 208.998595,218.998973 L208.998595,216.996918 C208.998595,216.444351 209.446424,215.99589 209.998213,215.99589 C210.550003,215.99589 210.997832,216.444351 210.997832,216.996918 M214.92833,211.991781 L214.909338,211.991781 L214.890345,211.991781 L204.117459,211.991781 C203.632644,211.991781 203.162824,211.832617 202.789966,211.555333 C200.688769,209.991728 203.142831,206.762414 205.237032,208.429124 C203.176818,201.63415 213.561852,199.374831 214.896343,205.995627 C214.913336,205.995627 214.92933,205.992624 214.946324,205.990621 C214.962317,205.987618 214.979311,205.985616 214.996304,205.985616 C216.361783,205.985616 217.518341,206.939595 217.876205,208.159848 C218.428993,210.044782 217.05052,211.991781 214.92833,211.991781 M219.104735,206.153789 C218.467979,205.241853 217.532336,204.553146 216.441752,204.220805 C216.435755,204.219804 216.431756,204.216801 216.427758,204.213798 C216.423759,204.209794 216.42076,204.20579 216.418761,204.200784 C213.603836,197.705118 203.970515,199.059508 203.064861,206.082716 C203.063862,206.090724 203.060863,206.097731 203.055865,206.102737 C203.050867,206.108743 203.043869,206.112747 203.036872,206.114749 C199.914065,206.892547 198.884458,210.925687 201.451477,213.018835 C202.20419,213.633466 203.179817,213.993836 204.201427,213.993836 L214.766392,213.993836 C218.983782,213.993836 221.420851,209.470193 219.104735,206.153789" id="clouds-[#1267]"></path>
            </g>
        </g>
    </g>
</svg>