<?xml version="1.0" encoding="UTF-8"?>
<svg width="20px" height="20px" viewBox="0 0 20 20" version="1.1" xmlns="http://www.w3.org/2000/svg" xmlns:xlink="http://www.w3.org/1999/xlink">
    <!-- Generator: Sketch 58 (84663) - https://sketch.com -->
    <title>winter_is_coming [#1258]</title>
    <desc>Created with Sketch.</desc>
    <g id="Icons" stroke="none" stroke-width="1" fill="none" fill-rule="evenodd">
        <g id="Education-&amp;-Time" transform="translate(-180.000000, -260.000000)" fill="#FFFFFF">
            <g id="icons" transform="translate(20.000000, 20.000000)">
                <path d="M170,252 C168.897,252 168,251.103 168,250 C168,248.897 168.897,248 170,248 C171.103,248 172,248.897 172,250 C172,251.103 171.103,252 170,252 L170,252 Z M180,249 L180,247 L178,247 L178,248 L177,249 L173.859,249 C173.771,248.662 173.639,248.345 173.471,248.048 L175.657,246 L177.071,246 L177.778,246.586 L179.192,245.025 L177.778,243.464 L177.071,244 L176,244 L176,242.929 L176.536,242.222 L175.036,240.808 L173.457,242.222 L174,242.929 L174,244.343 L171.923,246.513 C171.634,246.353 171.327,246.226 171,246.141 L171,243 L172,242 L173,242 L173,240 L171,240 L171,241 L170,242 L169,241 L169,240 L167,240 L167,242 L168,242 L169,243 L169,246.141 C168.662,246.229 168.345,246.361 168.048,246.529 L166,244.343 L166,242.929 L166.586,242.222 L165.025,240.808 L163.464,242.222 L164,242.929 L164,244 L162.929,244 L162.222,243.464 L160.808,244.964 L162.222,246.543 L162.929,246 L164.343,246 L166.513,248.077 C166.353,248.366 166.226,248.673 166.141,249 L163,249 L162,248 L162,247 L160,247 L160,249 L161,249 L162,250 L161,251 L160,251 L160,253 L162,253 L162,252 L163,251 L166.141,251 C166.229,251.338 166.361,251.655 166.529,251.952 L164.343,254 L162.929,254 L162.222,253.414 L160.808,254.975 L162.222,256.536 L162.929,256 L164,256 L164,257.071 L163.464,257.778 L164.964,259.192 L166.543,257.778 L166,257.071 L166,255.657 L168.077,253.487 C168.366,253.647 168.673,253.774 169,253.859 L169,257 L168,258 L167,258 L167,260 L169,260 L169,259 L170,258 L171,259 L171,260 L173,260 L173,258 L172,258 L171,257 L171,253.859 C171.338,253.771 171.655,253.639 171.952,253.471 L174,255.657 L174,257.071 L173.414,257.778 L174.975,259.192 L176.536,257.778 L176,257.071 L176,256 L177.071,256 L177.778,256.536 L179.192,255.036 L177.778,253.457 L177.071,254 L175.657,254 L173.487,251.923 C173.647,251.634 173.774,251.327 173.859,251 L177,251 L178,252 L178,253 L180,253 L180,251 L179,251 L178,250 L179,249 L180,249 Z" id="winter_is_coming-[#1258]"></path>
            </g>
        </g>
    </g>
</svg>