<svg>
  <defs>

    <symbol id="icon-clear">
        <g id="Icons" stroke="none" stroke-width="1" fill="none" fill-rule="evenodd">
            <g id="Education-&amp;-Time" transform="translate(-180.000000, -220.000000)" fill="#FFFFFF">
                <g id="icons" transform="translate(20.000000, 20.000000)">
                    <path d="M162.929,204.343 C162.538,203.952 162.538,203.319 162.929,202.929 C163.32,202.538 163.953,202.538 164.343,202.929 C164.734,203.319 164.734,203.952 164.343,204.343 C163.953,204.734 163.32,204.734 162.929,204.343 M177.071,215.657 C177.462,216.047 177.462,216.68 177.071,217.071 C176.681,217.461 176.047,217.461 175.657,217.071 C175.266,216.68 175.266,216.047 175.657,215.657 C176.047,215.266 176.681,215.266 177.071,215.657 M164.343,215.657 C164.734,216.047 164.734,216.68 164.343,217.071 C163.953,217.461 163.32,217.461 162.929,217.071 C162.538,216.68 162.538,216.047 162.929,215.657 C163.32,215.266 163.953,215.266 164.343,215.657 M177.071,202.929 C177.462,203.319 177.462,203.952 177.071,204.343 C176.681,204.734 176.047,204.734 175.657,204.343 C175.266,203.952 175.266,203.319 175.657,202.929 C176.047,202.538 176.681,202.538 177.071,202.929 M162,210 C162,210.552 161.552,211 161,211 C160.448,211 160,210.552 160,210 C160,209.448 160.448,209 161,209 C161.552,209 162,209.448 162,210 M180,210 C180,210.552 179.552,211 179,211 C178.448,211 178,210.552 178,210 C178,209.448 178.448,209 179,209 C179.552,209 180,209.448 180,210 M171,219 C171,219.552 170.552,220 170,220 C169.448,220 169,219.552 169,219 C169,218.448 169.448,218 170,218 C170.552,218 171,218.448 171,219 M169,201 C169,200.448 169.448,200 170,200 C170.552,200 171,200.448 171,201 C171,201.552 170.552,202 170,202 C169.448,202 169,201.552 169,201 M170,215 C167.243,215 165,212.757 165,210 C165,207.243 167.243,205 170,205 C172.757,205 175,207.243 175,210 C175,212.757 172.757,215 170,215 M170,203 C166.134,203 163,206.134 163,210 C163,213.866 166.134,217 170,217 C173.866,217 177,213.866 177,210 C177,206.134 173.866,203 170,203" id="sun_star-[#1268]"></path>
                </g>
            </g>
        </g>
    </symbol>

    <symbol id="icon-cloudly">
        <g id="Icons" stroke="none" stroke-width="1" fill="none" fill-rule="evenodd">
            <g id="Education-&amp;-Time" transform="translate(-300.000000, -180.000000)" fill="#FFFFFF">
                <g id="icons" transform="translate(20.000000, 20.000000)">
                    <path d="M297.85811,171.773 C296.560541,166.466 289.156179,167.286 288.34194,171.287 C288.207571,171.95 288.11632,172.603 288.057157,173.125 C288,173.628 287.562798,174 287.055402,174 C286.486839,174 286.029581,173.531 286.044623,172.964 L286.065681,172.199 C283.91276,171.391 281.639509,173.25 282.055653,175.554 C282.318376,177.008 283.696164,178 285.177237,178 L292.955628,178 L293.035849,178 L293.035849,177.995 C296.163449,177.945 298.654299,175.031 297.85811,171.773 M285.013788,170 C285.55628,170 286.069692,170.108 286.558035,170.267 C287.625971,167.759 290.103785,166 293.006769,166 C292.175483,165.376 291.148659,165 290.027576,165 C287.262973,165 285.013788,167.242 285.013788,170 M300,173 C300,176.828 297.046879,179.934 293.035849,179.994 C293.035849,179.994 293.016796,179.996 293.006769,179.997 C293.016796,179.997 293.025821,180 293.035849,180 L285.013788,180 C282.245174,180 280,177.761 280,175 C280,172.942 281.24743,171.179 283.028328,170.411 C282.78165,166.363 286.013537,163 290.027576,163 C292.750063,163 295.104537,164.548 296.269742,166.806 C298.49085,167.979 300,170.311 300,173 M284.354976,164.343 C284.747054,163.952 284.747054,163.319 284.354976,162.928 C283.963901,162.538 283.329155,162.538 282.937077,162.928 C282.546002,163.319 282.546002,163.952 282.937077,164.343 C283.329155,164.733 283.963901,164.733 284.354976,164.343 M297.118075,164.343 C297.510153,163.952 297.510153,163.319 297.118075,162.928 C296.726999,162.538 296.092254,162.538 295.700175,162.928 C295.3091,163.319 295.3091,163.952 295.700175,164.343 C296.092254,164.733 296.726999,164.733 297.118075,164.343 M281.002758,171 C281.557283,171 282.005515,170.552 282.005515,170 C282.005515,169.447 281.557283,169 281.002758,169 C280.449235,169 280,169.447 280,170 C280,170.552 280.449235,171 281.002758,171 M289.024818,161 C289.024818,160.447 289.474054,160 290.027576,160 C290.582101,160 291.030333,160.447 291.030333,161 C291.030333,161.552 290.582101,162 290.027576,162 C289.474054,162 289.024818,161.552 289.024818,161" id="clouds_sun-[#1275]"></path>
                </g>
            </g>
        </g>
    </symbol>

    <symbol id="icon-fog">
        <g id="Icons" stroke="none" stroke-width="1" fill="none" fill-rule="evenodd">
            <g id="Education-&amp;-Time" transform="translate(-340.000000, -183.000000)" fill="#FFFFFF">
                <g id="icons" transform="translate(20.000000, 20.000000)">
                    <path d="M337.85811,168.773 C337.400852,166.902 335.841564,165.416 333.940336,165.08 C331.400351,164.631 328.753071,166.265 328.34194,168.287 C328.207571,168.95 328.11632,169.603 328.057157,170.125 C328,170.628 327.562798,171 327.055402,171 L327.055402,171 C326.486839,171 326.029581,170.531 326.045625,169.964 L326.065681,169.199 C325.737779,169.076 325.385811,169 325.013788,169 C323.172725,169 321.71271,170.657 322.055653,172.554 C322.319378,174.008 323.696164,175 325.177237,175 L332.955628,175 L333.035849,175 L333.035849,174.995 C336.163449,174.945 338.654299,172.031 337.85811,168.773 M340,170 C340,173.828 337.046879,176.934 333.035849,176.994 C333.035849,176.994 333.016796,176.996 333.006769,176.997 C333.016796,176.997 333.025821,177 333.035849,177 L325.013788,177 C322.245174,177 320,174.761 320,172 C320,169.238 322.245174,167 325.013788,167 C325.55628,167 326.069692,167.108 326.558035,167.267 C327.625971,164.759 330.103785,163 333.008774,163 C336.885435,163 340,166.133 340,170 M333.035849,174.983 L333.035849,174.995 C333.008774,174.995 332.982702,175 332.955628,175 C333.01078,175 333.035849,174.985 333.035849,174.983" id="clouds-[#1274]"></path>
                </g>
            </g>
        </g>
    </symbol>

    <symbol id="icon-rain">
        <g id="Icons" stroke="none" stroke-width="1" fill="none" fill-rule="evenodd">
            <g id="Education-&amp;-Time" transform="translate(-220.000000, -220.000000)" fill="#FFFFFF">
                <g id="icons" transform="translate(20.000000, 20.000000)">
                    <path d="M206.999359,216.996918 L206.999359,218.998973 C206.999359,219.55154 206.55153,220 205.99974,220 C205.447951,220 205.000122,219.55154 205.000122,218.998973 L205.000122,216.996918 C205.000122,216.444351 205.447951,215.99589 205.99974,215.99589 C206.55153,215.99589 206.999359,216.444351 206.999359,216.996918 M214.996304,216.996918 L214.996304,218.998973 C214.996304,219.55154 214.548475,220 213.996686,220 C213.444897,220 212.997068,219.55154 212.997068,218.998973 L212.997068,216.996918 C212.997068,216.444351 213.444897,215.99589 213.996686,215.99589 C214.548475,215.99589 214.996304,216.444351 214.996304,216.996918 M210.997832,216.996918 L210.997832,218.998973 C210.997832,219.55154 210.550003,220 209.998213,220 C209.446424,220 208.998595,219.55154 208.998595,218.998973 L208.998595,216.996918 C208.998595,216.444351 209.446424,215.99589 209.998213,215.99589 C210.550003,215.99589 210.997832,216.444351 210.997832,216.996918 M214.92833,211.991781 L214.909338,211.991781 L214.890345,211.991781 L204.117459,211.991781 C203.632644,211.991781 203.162824,211.832617 202.789966,211.555333 C200.688769,209.991728 203.142831,206.762414 205.237032,208.429124 C203.176818,201.63415 213.561852,199.374831 214.896343,205.995627 C214.913336,205.995627 214.92933,205.992624 214.946324,205.990621 C214.962317,205.987618 214.979311,205.985616 214.996304,205.985616 C216.361783,205.985616 217.518341,206.939595 217.876205,208.159848 C218.428993,210.044782 217.05052,211.991781 214.92833,211.991781 M219.104735,206.153789 C218.467979,205.241853 217.532336,204.553146 216.441752,204.220805 C216.435755,204.219804 216.431756,204.216801 216.427758,204.213798 C216.423759,204.209794 216.42076,204.20579 216.418761,204.200784 C213.603836,197.705118 203.970515,199.059508 203.064861,206.082716 C203.063862,206.090724 203.060863,206.097731 203.055865,206.102737 C203.050867,206.108743 203.043869,206.112747 203.036872,206.114749 C199.914065,206.892547 198.884458,210.925687 201.451477,213.018835 C202.20419,213.633466 203.179817,213.993836 204.201427,213.993836 L214.766392,213.993836 C218.983782,213.993836 221.420851,209.470193 219.104735,206.153789" id="clouds-[#1267]"></path>
                </g>
            </g>
        </g>
    </symbol>

    <symbol id="icon-snow">
        <g id="Icons" stroke="none" stroke-width="1" fill="none" fill-rule="evenodd">
            <g id="Education-&amp;-Time" transform="translate(-180.000000, -260.000000)" fill="#FFFFFF">
                <g id="icons" transform="translate(20.000000, 20.000000)">
                    <path d="M170,252 C168.897,252 168,251.103 168,250 C168,248.897 168.897,248 170,248 C171.103,248 172,248.897 172,250 C172,251.103 171.103,252 170,252 L170,252 Z M180,249 L180,247 L178,247 L178,248 L177,249 L173.859,249 C173.771,248.662 173.639,248.345 173.471,248.048 L175.657,246 L177.071,246 L177.778,246.586 L179.192,245.025 L177.778,243.464 L177.071,244 L176,244 L176,242.929 L176.536,242.222 L175.036,240.808 L173.457,242.222 L174,242.929 L174,244.343 L171.923,246.513 C171.634,246.353 171.327,246.226 171,246.141 L171,243 L172,242 L173,242 L173,240 L171,240 L171,241 L170,242 L169,241 L169,240 L167,240 L167,242 L168,242 L169,243 L169,246.141 C168.662,246.229 168.345,246.361 168.048,246.529 L166,244.343 L166,242.929 L166.586,242.222 L165.025,240.808 L163.464,242.222 L164,242.929 L164,244 L162.929,244 L162.222,243.464 L160.808,244.964 L162.222,246.543 L162.929,246 L164.343,246 L166.513,248.077 C166.353,248.366 166.226,248.673 166.141,249 L163,249 L162,248 L162,247 L160,247 L160,249 L161,249 L162,250 L161,251 L160,251 L160,253 L162,253 L162,252 L163,251 L166.141,251 C166.229,251.338 166.361,251.655 166.529,251.952 L164.343,254 L162.929,254 L162.222,253.414 L160.808,254.975 L162.222,256.536 L162.929,256 L164,256 L164,257.071 L163.464,257.778 L164.964,259.192 L166.543,257.778 L166,257.071 L166,255.657 L168.077,253.487 C168.366,253.647 168.673,253.774 169,253.859 L169,257 L168,258 L167,258 L167,260 L169,260 L169,259 L170,258 L171,259 L171,260 L173,260 L173,258 L172,258 L171,257 L171,253.859 C171.338,253.771 171.655,253.639 171.952,253.471 L174,255.657 L174,257.071 L173.414,257.778 L174.975,259.192 L176.536,257.778 L176,257.071 L176,256 L177.071,256 L177.778,256.536 L179.192,255.036 L177.778,253.457 L177.071,254 L175.657,254 L173.487,251.923 C173.647,251.634 173.774,251.327 173.859,251 L177,251 L178,252 L178,253 L180,253 L180,251 L179,251 L178,250 L179,249 L180,249 Z" id="winter_is_coming-[#1258]"></path>
                </g>
            </g>
        </g>
    </symbol>

    <!-- etc -->

  </defs>
</svg>