<?xml version="1.0" encoding="utf-8"?>
<!-- Generator: Adobe Illustrator 22.1.0, SVG Export Plug-In . SVG Version: 6.00 Build 0)  -->
<svg version="1.1" xmlns="http://www.w3.org/2000/svg" xmlns:xlink="http://www.w3.org/1999/xlink" x="0px" y="0px"
	 viewBox="0 0 1440 320" style="enable-background:new 0 0 1440 320;" xml:space="preserve">
<style type="text/css">
	.st0{fill:#5AA3E8;}
</style>
<g id="Livello_2">
	<path class="st0" d="M-13.1,66.1c-0.2,13.7,8.4,23.9,14,35.5c2.5,5.2,2.6,4.2,3.8,9.6c3.6,15.7,10.1,30.4,14,46.1
		c4,15.9,7,32.1,12.4,47.7c3.9,11.1,9.2,21.9,16.8,31c8,9.7,18.6,15,28.7,22c4,2.8,7.9,3,13.3,2.4c5.2-0.6,9.4-3.7,12.5-7.3
		c15.7-18,27.2-39.6,38.6-60.4c1.4-2.7,2.9-5.3,4.3-8c25.2-48.4,50.8-103.3,76.2-113.7c26-10.9,51.8,21.6,77.2,27
		c25.8,5.8,51.8-16.6,77.2,0c25.6,15.9,50.8,70.8,77.2,86.7c25.4,16.6,50.8-5.8,77.2-38c25.2-32.8,50.8-75.4,76.2-48.7
		c26,27.1,51.8,124.6,77.2,151.7c25.8,26.7,51.8-15.9,77.2-27.1c25.6-11.2,50.8,11.2,77.2-5.4c25.3-15.9,50.8-70.8,76.2-97.5
		c26.1-27.1,51.8-27.1,77.2,0c25.9,26.7,51.8,81.5,77.2,86.6c25.7,5.1,51.8-37.6,77.2-43.4c25.5-5.4,50.8,27.1,77.2,43.4
		c25.3,16.2,50.8,16.2,76.2-21.6c26.1-38.3,51.8-63.4,77.2-90.8c25.9-27.4,51.8-5.1,64,5.4l13.2,10.9V320h-12.8c-12.9,0-39,0-64.4,0
		c-25.5,0-50.8,0-77.2,0c-25.2,0-50.8,0-76.2,0c-26,0-51.8,0-77.2,0c-25.8,0-51.8,0-77.2,0c-25.6,0-50.8,0-77.2,0
		c-25.4,0-50.8,0-77.2,0c-25.2,0-50.8,0-76.2,0c-26,0-51.8,0-77.2,0c-25.8,0-51.8,0-77.2,0c-25.6,0-50.8,0-77.2,0
		c-25.3,0-50.8,0-76.2,0c-26.1,0-51.8,0-77.2,0c-25.9,0-51.8,0-77.2,0c-25.7,0-51.8,0-77.2,0c-25.5,0-50.8,0-77.2,0
		c-25.3,0-50.8,0-76.2,0c-26.1,0-51.8,0-77.2,0c-25.9,0-51.8,0-64,0c0,0-13.2,0-13.2,0c0-23.1,0-46.2,0-69.2c0-42.4,0-84.8,0-127.1
		C-9,102.5-13.5,87.2-13.1,66.1z"/>
</g>
<g id="Livello_1">
</g>
</svg>
