<?xml version="1.0" encoding="utf-8"?>
<!-- Generator: Adobe Illustrator 22.1.0, SVG Export Plug-In . SVG Version: 6.00 Build 0)  -->
<svg version="1.1" id="Livello_1" xmlns="http://www.w3.org/2000/svg" xmlns:xlink="http://www.w3.org/1999/xlink" x="0px" y="0px"
	 viewBox="0 0 1440 320" style="enable-background:new 0 0 1440 320;" xml:space="preserve">
<style type="text/css">
	.st0{fill:#2DCCF9;}
</style>
<path class="st0" d="M-6.6,320V173.5c0,0,46.7,37.2,106.4,61.4c38.4,15.6,81.1,22.4,122.2,25.3c25.3,1.7,50.8,1.5,76-2
	c22-3.1,42.1-10.1,63.2-16.3c20.9-6.1,43.2-8.7,64.8-10.1c67.7-4.2,136,8.1,199.9,30c39.5,13.5,83.2,12,122.9,0.3
	c19.6-5.8,36.9-15.3,55.4-23.5c18.5-8.2,38.1-10.8,58.2-10.6c32.8,0.5,65.5,5.6,97.5,12.2c21.8,4.5,43.5,9.9,65,15.9
	c0,0,84,22.5,190.5-22.5c32.3-13.7,65.4-25.5,99-35.7c23.7-7.2,47.6-13.5,71.7-18.9c9.5-2.1,19.4-4.2,29.3-5
	c1.3-0.1,2.6-0.2,3.9-0.3c1.3-0.1,2.6-0.1,3.9-0.2c1.3-0.1,2.6-0.1,3.9-0.1c1.3,0,2.6-0.1,3.9-0.1c1.3,0,2.6,0,3.9,0
	c1.3,0,2.6,0,3.9,0c1.3,0,2.6,0,3.9,0c1.2,0,2.4,0,3.6,0.1c0,0,0,0.2,0,0.2c0,0.1,0,0.1,0,0.2c0,0.1,0,0.2,0,0.3c0,0.1,0,0.2,0,0.4
	c0,0.1,0,0.3,0,0.4c0,0.2,0,0.3,0,0.5c0,0.2,0,0.4,0,0.5c0,0.2,0,0.4,0,0.6c0,0.2,0,0.4,0,0.7c0,0.2,0,0.5,0,0.7c0,0.3,0,0.5,0,0.8
	c0,0.3,0,0.6,0,0.8c0,0.3,0,0.6,0,0.9c0,0.3,0,0.6,0,0.9c0,0.3,0,0.7,0,1c0,0.3,0,0.7,0,1c0,0.4,0,0.7,0,1.1c0,0.4,0,0.8,0,1.1
	c0,0.4,0,0.8,0,1.2c0,0.4,0,0.8,0,1.2c0,0.4,0,0.9,0,1.3c0,0.4,0,0.9,0,1.3c0,0.5,0,0.9,0,1.4c0,0.5,0,0.9,0,1.4c0,0.5,0,1,0,1.4
	c0,0.5,0,1,0,1.5c0,0.5,0,1,0,1.5c0,0.5,0,1,0,1.5c0,0.5,0,1.1,0,1.6c0,0.5,0,1.1,0,1.6c0,0.5,0,1.1,0,1.6c0,0.6,0,1.1,0,1.7
	c0,0.6,0,1.1,0,1.7c0,0.6,0,1.2,0,1.7c0,0.6,0,1.2,0,1.8c0,0.6,0,1.2,0,1.8c0,0.6,0,1.2,0,1.8c0,0.6,0,1.2,0,1.8c0,0.6,0,1.2,0,1.8
	c0,0.6,0,1.2,0,1.9c0,0.6,0,1.3,0,1.9c0,0.6,0,1.3,0,1.9c0,0.6,0,1.3,0,1.9c0,0.6,0,1.3,0,1.9c0,0.6,0,1.3,0,1.9c0,0.6,0,1.3,0,1.9
	c0,0.7,0,1.3,0,2c0,0.7,0,1.3,0,2c0,0.7,0,1.3,0,2c0,0.7,0,1.3,0,2c0,0.7,0,1.3,0,2c0,0.7,0,1.3,0,2c0,0.7,0,1.3,0,2
	c0,0.7,0,1.3,0,2c0,0.7,0,1.3,0,2c0,0.7,0,1.3,0,2c0,0.7,0,1.3,0,2c0,0.7,0,1.3,0,2c0,0.7,0,1.3,0,2c0,0.7,0,1.3,0,2
	c0,0.7,0,1.3,0,2c0,0.6,0,1.3,0,1.9c0,0.6,0,1.3,0,1.9c0,0.6,0,1.3,0,1.9c0,0.6,0,1.3,0,1.9c0,0.6,0,1.3,0,1.9c0,0.6,0,1.3,0,1.9
	c0,0.6,0,1.2,0,1.9c0,0.6,0,1.2,0,1.8c0,0.6,0,1.2,0,1.8c0,0.6,0,1.2,0,1.8c0,0.6,0,1.2,0,1.8c0,0.6,0,1.2,0,1.8c0,0.6,0,1.2,0,1.7
	c0,0.6,0,1.1,0,1.7c0,0.6,0,1.1,0,1.7c0,0.5,0,1.1,0,1.6c0,0.5,0,1.1,0,1.6c0,0.5,0,1.1,0,1.6c0,0.5,0,1,0,1.6c0,0.5,0,1,0,1.5
	c0,0.5,0,1,0,1.5c0,0.5,0,1,0,1.4c0,0.5,0,0.9,0,1.4c0,0.5,0,0.9,0,1.4c0,0.4,0,0.9,0,1.3c0,0.4,0,0.9,0,1.3c0,0.4,0,0.8,0,1.2
	c0,0.4,0,0.8,0,1.2c0,0.4,0,0.8,0,1.1c0,0.4,0,0.7,0,1.1c0,0.3,0,0.7,0,1c0,0.3,0,0.7,0,1c0,0.3,0,0.6,0,0.9c0,0.3,0,0.6,0,0.9
	c0,0.3,0,0.6,0,0.8c0,0.3,0,0.5,0,0.8c0,0.2,0,0.5,0,0.7c0,0.2,0,0.4,0,0.7c0,0.2,0,0.4,0,0.6c0,0.2,0,0.4,0,0.5c0,0.2,0,0.3,0,0.5
	c0,0.1,0,0.3,0,0.4c0,0.1,0,0.2,0,0.4c0,0.1,0,0.2,0,0.3c0,0.1,0,0.2,0,0.2c0,0.1,0,0.1,0,0.2c0,0,0,0.1,0,0.1H-6.6z"/>
</svg>
